# xmcd
#
# Track frame offsets:
#	150
#	13330
#	26943
#	39116
#	57963
#	71240
#	85238
#	100024
#	114050
#	130938
#	141931
#	156521
#	171397
#	182094
#	197687
#	209297
#
# Disc length: 3005 seconds
#
# Revision: 1
# Processed by: cddbd v1.5.2PL0 Copyright (c) Steve Scherf et al.
# Submitted via: audiograbber 1.83.01
#
DISCID=e40bbb10
DTITLE=Dolly Parton - 16 Biggest Hits
DYEAR=2007
DGENRE=Country
TTITLE0=Here You Come Again
TTITLE1=9 To 5
TTITLE2=Jolene
TTITLE3=Islands In The Stream
TTITLE4=I Will Always Love You
TTITLE5=Coat Of Many Colors
TTITLE6=The Seeker
TTITLE7=Two Doors Down
TTITLE8=Single Woman
TTITLE9=All I Can Do
TTITLE10=Heartbreak Express
TTITLE11=Don't Call It Love
TTITLE12=Love Is Like A Butterfly
TTITLE13=Rockin' Years
TTITLE14=Why'd You Come In Here Lookin' Like That
TTITLE15=Romeo
EXTD=
EXTT0=
EXTT1=
EXTT2=
EXTT3=
EXTT4=
EXTT5=
EXTT6=
EXTT7=
EXTT8=
EXTT9=
EXTT10=
EXTT11=
EXTT12=
EXTT13=
EXTT14=
EXTT15=
PLAYORDER=
